<svg xmlns="http://www.w3.org/2000/svg" viewBox="0 0 320 320" role="img" aria-labelledby="title desc">
  <title id="title">Achar vendor subscription payment QR placeholder</title>
  <desc id="desc">Replace this placeholder with the real admin payment QR code.</desc>
  <rect width="320" height="320" rx="28" fill="#fff8f1"/>
  <rect x="20" y="20" width="280" height="280" rx="24" fill="#ffffff" stroke="#fed7aa" stroke-width="2"/>
  <rect x="42" y="42" width="64" height="64" rx="8" fill="none" stroke="#0f172a" stroke-width="12"/>
  <rect x="214" y="42" width="64" height="64" rx="8" fill="none" stroke="#0f172a" stroke-width="12"/>
  <rect x="42" y="214" width="64" height="64" rx="8" fill="none" stroke="#0f172a" stroke-width="12"/>
  <rect x="128" y="52" width="20" height="20" fill="#0f172a"/>
  <rect x="160" y="52" width="20" height="20" fill="#0f172a"/>
  <rect x="128" y="84" width="52" height="20" fill="#0f172a"/>
  <rect x="128" y="128" width="20" height="20" fill="#0f172a"/>
  <rect x="160" y="128" width="20" height="20" fill="#0f172a"/>
  <rect x="192" y="128" width="20" height="20" fill="#0f172a"/>
  <rect x="224" y="128" width="20" height="20" fill="#0f172a"/>
  <rect x="128" y="160" width="84" height="20" fill="#0f172a"/>
  <rect x="224" y="160" width="20" height="20" fill="#0f172a"/>
  <rect x="128" y="192" width="20" height="20" fill="#0f172a"/>
  <rect x="160" y="192" width="52" height="20" fill="#0f172a"/>
  <rect x="224" y="192" width="20" height="20" fill="#0f172a"/>
  <rect x="128" y="224" width="20" height="20" fill="#0f172a"/>
  <rect x="160" y="224" width="20" height="20" fill="#0f172a"/>
  <rect x="192" y="224" width="20" height="20" fill="#0f172a"/>
  <rect x="224" y="224" width="20" height="20" fill="#0f172a"/>
  <rect x="256" y="224" width="20" height="20" fill="#0f172a"/>
  <rect x="128" y="256" width="84" height="20" fill="#0f172a"/>
  <text x="160" y="304" text-anchor="middle" font-family="Georgia, serif" font-size="14" fill="#c2410c">
    Replace with your real admin QR
  </text>
</svg>
